<svg width="127" height="44" viewBox="0 0 127 44" fill="none" xmlns="http://www.w3.org/2000/svg">
<g clip-path="url(#clip0_27_2426)">
<path d="M1.26367 35.1733H2.64076C4.72922 35.1733 6.2775 34.938 7.2913 34.4692C8.77871 33.7803 9.52241 32.4663 9.52241 30.5236C9.52241 28.9273 8.91185 27.0016 7.69453 24.7465C6.47531 22.4913 5.28082 20.3171 4.11105 18.2182C2.81385 15.7127 2.16525 13.6627 2.16525 12.0664C2.16525 10.1256 2.79863 8.65354 4.0635 7.65208C5.32837 6.65063 6.97365 6.1499 8.99935 6.1499H10.7074V8.40506C8.71404 8.40506 7.35406 8.53118 6.62558 8.78154C5.20093 9.28227 4.48956 10.3477 4.48956 11.976C4.48956 13.6043 5.12295 15.5621 6.38782 17.9415C7.55759 20.0084 8.75208 22.1694 9.9713 24.4227C11.1886 26.6778 11.7992 28.6958 11.7992 30.4822C11.7992 32.7374 11.0479 34.4673 9.54524 35.6721C8.04261 36.8787 6.11963 37.4811 3.7801 37.4811H1.26367V35.1789V35.1733Z" fill="white"/>
<path d="M34.7676 37.4755V6.14807H37.0938V35.1733H43.0263V37.4755H34.7695H34.7676Z" fill="white"/>
<path d="M43.2129 6.14807H45.6799L50.6157 28.4568L55.4089 6.14807H57.8759L50.6157 38.2266L43.2129 6.14807Z" fill="white"/>
<path d="M60.3926 37.4755V6.14807H62.7188V37.4755H60.3926Z" fill="white"/>
<path d="M67.2266 37.4755V6.14807H69.5528V35.1733H75.4853V37.4755H67.2285H67.2266Z" fill="white"/>
<path d="M77.5723 37.4755V6.14807H79.8985V35.1733H85.831V37.4755H77.5742H77.5723Z" fill="white"/>
<path d="M87.916 37.4755V6.14807H90.2422V37.4755H87.916Z" fill="white"/>
<path d="M124.172 37.4755V13.5686L117.481 9.62302V37.4736H115.154V5.58521L124.172 10.9859V6.14805H126.498V37.4755H124.172Z" fill="white"/>
<path d="M112.918 21.5068C112.918 25.9211 111.897 29.6954 109.856 32.8259C107.815 35.9563 105.356 37.5225 102.478 37.5225C99.6 37.5225 97.1292 35.9883 95.0693 32.92C93.0075 29.8516 91.9766 26.0943 91.9766 21.648C91.9766 17.2017 93.0075 13.1789 95.0693 10.0465C97.1311 6.91604 99.6609 5.34985 102.662 5.34985C105.664 5.34985 107.944 6.93863 109.934 10.1162C111.923 13.2937 112.918 17.0906 112.918 21.5049V21.5068ZM93.4469 21.4597C93.4469 25.2491 94.3237 28.4887 96.0793 31.1825C97.8349 33.8763 99.9576 35.2222 102.447 35.2222C104.937 35.2222 107.035 33.9007 108.8 31.254C110.565 28.6092 111.448 25.4072 111.448 21.6498C111.448 17.6421 110.56 14.3084 108.785 11.6466C107.009 8.98483 104.825 7.65395 102.232 7.65395C99.8245 7.65395 97.7569 9.02436 96.0337 11.7633C94.3085 14.5041 93.4469 17.7363 93.4469 21.4616V21.4597Z" fill="white"/>
<path d="M107.432 4.31642L110.174 0H111.163L113.921 4.31642H113.067L110.669 0.592967L108.27 4.31642H107.432Z" fill="white"/>
<path d="M0.499847 42.895L0.528378 42.3716L0.568321 41.2817L0.59495 40.2068C0.59495 40.1447 0.59495 40.0826 0.59495 40.0205V39.7889L0.794666 39.7908H0.98297C0.960145 40.1673 0.943027 40.5645 0.929712 40.9768C0.908789 41.6375 0.893573 42.2775 0.884063 42.895L0.701465 42.8912C0.67864 42.8912 0.610166 42.8912 0.494141 42.895H0.499847Z" fill="white"/>
<path d="M1.43945 42.895C1.50222 41.9443 1.53456 41.1744 1.53646 40.589H1.71145C1.75519 40.5909 1.81035 40.589 1.88073 40.589L1.856 41.0445C1.88834 40.9805 1.91497 40.9316 1.93399 40.8977C1.95301 40.8638 1.97964 40.8281 2.01197 40.7904C2.04431 40.7528 2.08235 40.717 2.1261 40.685C2.16984 40.653 2.2231 40.6247 2.28207 40.604C2.34103 40.5815 2.40189 40.5664 2.46466 40.5551C2.52553 40.5438 2.5883 40.54 2.64916 40.54C2.76138 40.54 2.8679 40.5551 2.97251 40.5871C3.07713 40.6191 3.16082 40.6718 3.22929 40.7433C3.29586 40.8149 3.34151 40.8958 3.36434 40.9862C3.38716 41.0765 3.39857 41.1725 3.39857 41.2761C3.39857 41.2949 3.39857 41.3344 3.39667 41.389C3.39667 41.4455 3.39287 41.5189 3.38906 41.6093L3.35102 42.5637C3.34912 42.654 3.34722 42.767 3.34532 42.8987C3.28635 42.895 3.23119 42.895 3.17984 42.895C3.11707 42.895 3.0562 42.895 3.00104 42.8987C3.01436 42.7142 3.02387 42.5392 3.02957 42.3679L3.0543 41.837C3.06191 41.6544 3.06571 41.517 3.06571 41.4248C3.06571 41.2911 3.04669 41.1838 3.00675 41.1048C2.96681 41.0257 2.90594 40.9636 2.82035 40.9203C2.73476 40.877 2.63775 40.8563 2.53124 40.8563C2.38097 40.8563 2.25163 40.8977 2.14322 40.9824C2.04431 41.0596 1.96823 41.1707 1.91307 41.3118C1.87502 41.4135 1.8484 41.5641 1.83318 41.7617C1.81416 42.0008 1.79894 42.3792 1.79133 42.8968C1.71906 42.8931 1.66199 42.8931 1.62205 42.8931C1.58211 42.8931 1.52124 42.8931 1.43945 42.8968V42.895Z" fill="white"/>
<path d="M3.90756 42.895L3.92849 42.4771L3.98174 40.877H3.73828C3.74399 40.8017 3.74969 40.7076 3.7535 40.5946H4.00457C4.00647 40.4535 4.01028 40.3462 4.01408 40.2709C4.01788 40.1956 4.02549 40.1278 4.03881 40.0676C4.05212 40.0073 4.07304 39.9565 4.09967 39.9151C4.1263 39.8737 4.16244 39.836 4.20999 39.8003C4.25754 39.7645 4.3127 39.74 4.37547 39.7231C4.43824 39.708 4.51052 39.6986 4.59231 39.6986C4.70072 39.6986 4.82436 39.7174 4.96891 39.7551C4.97082 39.8454 4.97842 39.9433 4.98793 40.045C4.8643 39.9941 4.75208 39.9697 4.65127 39.9697C4.60182 39.9697 4.55617 39.9772 4.51432 39.9923C4.47248 40.0073 4.44014 40.028 4.41351 40.0525C4.38879 40.077 4.36786 40.1109 4.35074 40.1523C4.33363 40.1937 4.32412 40.2426 4.31841 40.2972C4.3127 40.3537 4.3089 40.4196 4.3089 40.4949V40.5928H4.84908C4.84338 40.6586 4.83577 40.7528 4.83197 40.8751H4.3089L4.27466 42.0366L4.25754 42.8931C4.17766 42.8893 4.11869 42.8893 4.08065 42.8893C4.04261 42.8893 3.98555 42.8893 3.90756 42.8931V42.895Z" fill="white"/>
<path d="M5.04102 42.895L5.07525 42.3208L5.11329 41.342L5.12851 40.589H5.3073H5.48229C5.46708 40.8262 5.45376 41.0728 5.44235 41.3326C5.43094 41.5923 5.42143 41.8747 5.41382 42.1797C5.40621 42.4865 5.40241 42.7237 5.40241 42.895C5.32062 42.8912 5.26165 42.8912 5.22742 42.8912C5.19508 42.8912 5.13231 42.8912 5.04102 42.895ZM5.13041 40.0939C5.13422 39.9509 5.13612 39.8436 5.13612 39.7701C5.2084 39.7739 5.27117 39.7739 5.32442 39.7739C5.3929 39.7739 5.45566 39.7739 5.51082 39.7701C5.50892 39.8172 5.50512 39.9245 5.49941 40.0939C5.42904 40.0939 5.36817 40.092 5.31872 40.092C5.26926 40.092 5.20459 40.092 5.13041 40.0939Z" fill="white"/>
<path d="M5.91602 42.895C5.97878 41.9443 6.01112 41.1744 6.01302 40.589H6.18801C6.23176 40.5909 6.28692 40.589 6.35729 40.589L6.33257 41.0445C6.3649 40.9805 6.39153 40.9316 6.41055 40.8977C6.42957 40.8638 6.4562 40.8281 6.48854 40.7904C6.52087 40.7528 6.55891 40.717 6.60266 40.685C6.64641 40.653 6.69966 40.6247 6.75863 40.604C6.81759 40.5815 6.87846 40.5664 6.94123 40.5551C7.00209 40.5438 7.06486 40.54 7.12573 40.54C7.23795 40.54 7.34446 40.5551 7.44908 40.5871C7.55369 40.6191 7.63738 40.6718 7.70585 40.7433C7.77243 40.8149 7.81807 40.8958 7.8409 40.9862C7.86372 41.0765 7.87514 41.1725 7.87514 41.2761C7.87514 41.2949 7.87514 41.3344 7.87323 41.389C7.87323 41.4455 7.86943 41.5189 7.86563 41.6093L7.82758 42.5637C7.82568 42.654 7.82378 42.767 7.82188 42.8987C7.76292 42.895 7.70776 42.895 7.6564 42.895C7.59363 42.895 7.53277 42.895 7.47761 42.8987C7.49092 42.7142 7.50043 42.5392 7.50614 42.3679L7.53086 41.837C7.53847 41.6544 7.54228 41.517 7.54228 41.4248C7.54228 41.2911 7.52326 41.1838 7.48331 41.1048C7.44337 41.0257 7.3825 40.9636 7.29691 40.9203C7.21132 40.877 7.11431 40.8563 7.0078 40.8563C6.85754 40.8563 6.72819 40.8977 6.61978 40.9824C6.52087 41.0596 6.44479 41.1707 6.38963 41.3118C6.35159 41.4135 6.32496 41.5641 6.30974 41.7617C6.29072 42.0008 6.2755 42.3792 6.2679 42.8968C6.19562 42.8931 6.13856 42.8931 6.09861 42.8931C6.05867 42.8931 5.9978 42.8931 5.91602 42.8968V42.895Z" fill="white"/>
<path d="M8.34375 42.895L8.37799 42.3208L8.41603 41.342L8.43124 40.589H8.61004H8.78503C8.76981 40.8262 8.7565 41.0728 8.74508 41.3326C8.73367 41.5923 8.72416 41.8747 8.71655 42.1797C8.70895 42.4865 8.70514 42.7237 8.70514 42.895C8.62335 42.8912 8.56439 42.8912 8.53015 42.8912C8.49782 42.8912 8.43505 42.8912 8.34375 42.895ZM8.43315 40.0939C8.43695 39.9509 8.43885 39.8436 8.43885 39.7701C8.51113 39.7739 8.5739 39.7739 8.62716 39.7739C8.69563 39.7739 8.7584 39.7739 8.81356 39.7701C8.81166 39.8172 8.80785 39.9245 8.80215 40.0939C8.73177 40.0939 8.6709 40.092 8.62145 40.092C8.572 40.092 8.50733 40.092 8.43315 40.0939Z" fill="white"/>
<path d="M10.2263 42.5957C10.2111 42.6691 10.1959 42.7689 10.1788 42.8913C10.0913 42.9157 10.0209 42.9308 9.96766 42.9364C9.91631 42.9421 9.86685 42.9458 9.8193 42.9458C9.70328 42.9458 9.61008 42.9289 9.5397 42.895C9.46932 42.8611 9.41416 42.8065 9.37612 42.7312C9.33808 42.6559 9.31906 42.5543 9.31906 42.4244C9.31906 42.4075 9.31906 42.3773 9.32096 42.3359C9.32287 42.2945 9.32857 42.1458 9.33998 41.8917L9.38754 40.8714H9.12695C9.13266 40.8074 9.13646 40.717 9.14027 40.5984H9.40656C9.41226 40.5137 9.41987 40.3688 9.42558 40.1636C9.54731 40.1373 9.65002 40.1109 9.73371 40.0864C9.7242 40.3104 9.7204 40.4817 9.71849 40.5984H10.2587C10.253 40.6945 10.2492 40.7848 10.2473 40.8714H9.70898L9.65763 42.1533V42.2512C9.65763 42.3623 9.66714 42.4451 9.68806 42.4997C9.70898 42.5543 9.74132 42.5957 9.78507 42.6183C9.82691 42.6428 9.87256 42.6541 9.92011 42.6541C9.95245 42.6541 9.98668 42.6503 10.0247 42.6447C10.0628 42.639 10.1274 42.6221 10.2225 42.5919L10.2263 42.5957Z" fill="white"/>
<path d="M12.1269 42.5335C12.1117 42.6164 12.0965 42.7237 12.0793 42.8517C11.9538 42.8874 11.8473 42.9119 11.7541 42.9251C11.6628 42.9383 11.5715 42.9439 11.4802 42.9439C11.3185 42.9439 11.1721 42.9213 11.0427 42.8761C10.9134 42.831 10.8031 42.7519 10.7099 42.639C10.6186 42.526 10.552 42.3961 10.512 42.2512C10.4721 42.1062 10.4512 41.9519 10.4512 41.79C10.4512 41.5641 10.4873 41.3533 10.5615 41.1612C10.6357 40.9674 10.746 40.8149 10.8963 40.7057C11.0446 40.5946 11.2329 40.54 11.4612 40.54C11.5791 40.54 11.6913 40.5607 11.7997 40.6003C11.9081 40.6398 11.9975 40.7019 12.0679 40.7829C12.1402 40.8638 12.1954 40.9655 12.2334 41.0859C12.2733 41.2064 12.2924 41.3382 12.2924 41.4813C12.2924 41.5358 12.2886 41.5886 12.281 41.6413H10.7954C10.7897 41.7241 10.7878 41.7881 10.7878 41.8333C10.7878 41.9933 10.8164 42.1401 10.8734 42.2738C10.9305 42.4074 11.0142 42.5091 11.1264 42.5787C11.2386 42.6484 11.3661 42.6822 11.5125 42.6822C11.6799 42.6822 11.8834 42.6333 12.1231 42.5373L12.1269 42.5335ZM10.8145 41.4511H11.9747C11.9747 41.3551 11.969 41.2817 11.9595 41.2271C11.95 41.1744 11.9329 41.1198 11.9081 41.0615C11.8834 41.005 11.8492 40.9561 11.8073 40.9128C11.7655 40.8695 11.7141 40.8393 11.6552 40.8168C11.5962 40.7942 11.5315 40.7829 11.4631 40.7829C11.3889 40.7829 11.3185 40.7942 11.2519 40.8186C11.1854 40.8431 11.1264 40.877 11.075 40.9184C11.0237 40.9617 10.9799 41.0106 10.9438 41.0671C10.9077 41.1236 10.881 41.1782 10.8639 41.2328C10.8468 41.2855 10.8297 41.357 10.8126 41.4474L10.8145 41.4511Z" fill="white"/>
<path d="M13.668 42.895L13.7174 42.0385L13.7726 40.4384L13.7783 40.0902C13.7783 40.0017 13.7783 39.9019 13.7783 39.7871C14.0712 39.7871 14.3717 39.789 14.6799 39.789H15.2999L15.4977 39.7871C15.4882 39.8925 15.4825 39.9979 15.4806 40.1052L15.3075 40.0939C15.2657 40.0902 15.1915 40.0883 15.0869 40.0864C14.9823 40.0864 14.8796 40.0845 14.7769 40.0845C14.4706 40.0845 14.2576 40.0864 14.1359 40.0921L14.0997 41.1575C14.2995 41.1613 14.4782 41.165 14.638 41.165C14.8111 41.165 15.0375 41.1613 15.3171 41.1556C15.3075 41.2611 15.3018 41.3665 15.2999 41.47L14.6304 41.4625C14.4992 41.4625 14.3166 41.4662 14.0826 41.4719L14.0465 42.5957H14.25C14.6171 42.5976 14.8606 42.5957 14.9823 42.5938C15.1021 42.5901 15.2429 42.5844 15.4045 42.5731C15.395 42.6861 15.3893 42.7934 15.3874 42.895C15.0736 42.8912 14.8111 42.8912 14.5943 42.8912L13.668 42.895Z" fill="white"/>
<path d="M15.8711 42.895C15.9339 41.9443 15.9662 41.1744 15.9681 40.589H16.1431C16.1868 40.5909 16.242 40.589 16.3124 40.589L16.2876 41.0445C16.32 40.9805 16.3466 40.9316 16.3656 40.8977C16.3847 40.8638 16.4113 40.8281 16.4436 40.7904C16.4759 40.7528 16.514 40.717 16.5577 40.685C16.6015 40.653 16.6547 40.6247 16.7137 40.604C16.7727 40.5815 16.8335 40.5664 16.8963 40.5551C16.9572 40.5438 17.0199 40.54 17.0808 40.54C17.193 40.54 17.2995 40.5551 17.4042 40.5871C17.5088 40.6191 17.5925 40.6718 17.6609 40.7433C17.7275 40.8149 17.7732 40.8958 17.796 40.9862C17.8188 41.0765 17.8302 41.1725 17.8302 41.2761C17.8302 41.2949 17.8302 41.3344 17.8283 41.389C17.8283 41.4455 17.8245 41.5189 17.8207 41.6093L17.7827 42.5637C17.7808 42.654 17.7789 42.767 17.777 42.8987C17.718 42.895 17.6628 42.895 17.6115 42.895C17.5487 42.895 17.4878 42.895 17.4327 42.8987C17.446 42.7142 17.4555 42.5392 17.4612 42.3679L17.4859 41.837C17.4936 41.6544 17.4974 41.517 17.4974 41.4248C17.4974 41.2911 17.4783 41.1838 17.4384 41.1048C17.3984 41.0257 17.3376 40.9636 17.252 40.9203C17.1664 40.877 17.0694 40.8563 16.9629 40.8563C16.8126 40.8563 16.6833 40.8977 16.5749 40.9824C16.4759 41.0596 16.3999 41.1707 16.3447 41.3118C16.3067 41.4135 16.28 41.5641 16.2648 41.7617C16.2458 42.0008 16.2306 42.3792 16.223 42.8968C16.1507 42.8931 16.0936 42.8931 16.0537 42.8931C16.0137 42.8931 15.9529 42.8931 15.8711 42.8968V42.895Z" fill="white"/>
<path d="M18.4092 43.5633C18.5803 43.6235 18.7249 43.6649 18.839 43.6856C18.9551 43.7063 19.0597 43.7176 19.1548 43.7176C19.2632 43.7176 19.3621 43.7007 19.4553 43.6649C19.5314 43.6367 19.5979 43.5953 19.6512 43.5426C19.6931 43.5012 19.7273 43.4485 19.7539 43.3826C19.7882 43.296 19.811 43.1868 19.8262 43.0531C19.8376 42.9458 19.8471 42.7312 19.8528 42.4093C19.8224 42.4771 19.7939 42.5336 19.7672 42.575C19.7425 42.6183 19.7083 42.6616 19.6645 42.7068C19.6227 42.7519 19.5713 42.7915 19.5143 42.8254C19.4572 42.8611 19.3906 42.8875 19.3164 42.9082C19.2404 42.9289 19.1624 42.9383 19.0825 42.9383C18.9646 42.9383 18.8542 42.9195 18.7496 42.8818C18.6469 42.8442 18.5537 42.7802 18.4738 42.6936C18.392 42.6051 18.3312 42.4941 18.2893 42.3566C18.2475 42.2192 18.2266 42.078 18.2266 41.9293C18.2266 41.7241 18.2589 41.5303 18.3217 41.3439C18.3844 41.1594 18.4776 41.0032 18.5975 40.8789C18.7192 40.7547 18.8561 40.6662 19.0083 40.6154C19.1605 40.5646 19.3279 40.5382 19.5105 40.5382C19.7102 40.5382 19.9593 40.5702 20.2561 40.6323L20.2351 40.9128L20.1762 42.1891C20.1762 42.2155 20.1724 42.3698 20.1667 42.6541L20.1553 43.1247C20.1495 43.2244 20.1362 43.3129 20.121 43.3882C20.1058 43.4503 20.0849 43.5106 20.0582 43.5652C20.0354 43.616 20.005 43.663 19.9708 43.7063C19.9365 43.7496 19.8966 43.7892 19.8528 43.8249C19.8072 43.8588 19.7577 43.8871 19.7064 43.9096C19.6341 43.9398 19.558 43.9624 19.48 43.9755C19.3925 43.9925 19.3031 44 19.2156 44C19.0882 44 18.9627 43.9925 18.8409 43.9774C18.7173 43.9624 18.5803 43.9341 18.4282 43.8908L18.4225 43.7647C18.4225 43.7346 18.4168 43.6668 18.4092 43.5614V43.5633ZM19.9061 40.877C19.7615 40.8432 19.6246 40.8262 19.499 40.8262C19.3735 40.8262 19.2537 40.8432 19.1453 40.8789C19.0368 40.9147 18.9379 40.9768 18.8466 41.0709C18.7572 41.1632 18.6869 41.2836 18.6355 41.4305C18.5841 41.5773 18.5594 41.7298 18.5594 41.8879C18.5594 42.0347 18.5822 42.1703 18.6279 42.2908C18.6735 42.4112 18.7458 42.5035 18.8409 42.5656C18.936 42.6277 19.0464 42.6578 19.1681 42.6578C19.2727 42.6578 19.3659 42.6352 19.4496 42.5938C19.5314 42.5505 19.6056 42.4846 19.6683 42.3943C19.7349 42.302 19.7843 42.1947 19.8167 42.0762C19.8414 41.9914 19.8604 41.8653 19.8737 41.6978C19.8833 41.5641 19.8947 41.2912 19.9042 40.8789L19.9061 40.877Z" fill="white"/>
<path d="M20.7012 42.895L20.7354 42.3208L20.7734 41.342L20.7887 40.589H20.9675H21.1424C21.1272 40.8262 21.1139 41.0728 21.1025 41.3326C21.0911 41.5923 21.0816 41.8747 21.074 42.1797C21.0664 42.4865 21.0626 42.7237 21.0626 42.895C20.9808 42.8912 20.9218 42.8912 20.8876 42.8912C20.8552 42.8912 20.7925 42.8912 20.7012 42.895ZM20.7906 40.0939C20.7944 39.9509 20.7963 39.8436 20.7963 39.7701C20.8686 39.7739 20.9313 39.7739 20.9846 39.7739C21.0531 39.7739 21.1158 39.7739 21.171 39.7701C21.1691 39.8172 21.1653 39.9245 21.1596 40.0939C21.0892 40.0939 21.0283 40.092 20.9789 40.092C20.9294 40.092 20.8647 40.092 20.7906 40.0939Z" fill="white"/>
<path d="M21.5762 42.895C21.6389 41.9443 21.6713 41.1744 21.6732 40.589H21.8482C21.8919 40.5909 21.9471 40.589 22.0174 40.589L21.9927 41.0445C22.0251 40.9805 22.0517 40.9316 22.0707 40.8977C22.0897 40.8638 22.1164 40.8281 22.1487 40.7904C22.181 40.7528 22.2191 40.717 22.2628 40.685C22.3066 40.653 22.3598 40.6247 22.4188 40.604C22.4777 40.5815 22.5386 40.5664 22.6014 40.5551C22.6622 40.5438 22.725 40.54 22.7859 40.54C22.8981 40.54 23.0046 40.5551 23.1092 40.5871C23.2138 40.6191 23.2975 40.6718 23.366 40.7433C23.4326 40.8149 23.4782 40.8958 23.5011 40.9862C23.5239 41.0765 23.5353 41.1725 23.5353 41.2761C23.5353 41.2949 23.5353 41.3344 23.5334 41.389C23.5334 41.4455 23.5296 41.5189 23.5258 41.6093L23.4877 42.5637C23.4858 42.654 23.4839 42.767 23.482 42.8987C23.4231 42.895 23.3679 42.895 23.3166 42.895C23.2538 42.895 23.1929 42.895 23.1378 42.8987C23.1511 42.7142 23.1606 42.5392 23.1663 42.3679L23.191 41.837C23.1986 41.6544 23.2024 41.517 23.2024 41.4248C23.2024 41.2911 23.1834 41.1838 23.1435 41.1048C23.1035 41.0257 23.0427 40.9636 22.9571 40.9203C22.8715 40.877 22.7745 40.8563 22.668 40.8563C22.5177 40.8563 22.3884 40.8977 22.2799 40.9824C22.181 41.0596 22.1049 41.1707 22.0498 41.3118C22.0117 41.4135 21.9851 41.5641 21.9699 41.7617C21.9509 42.0008 21.9357 42.3792 21.9281 42.8968C21.8558 42.8931 21.7987 42.8931 21.7588 42.8931C21.7188 42.8931 21.658 42.8931 21.5762 42.8968V42.895Z" fill="white"/>
<path d="M25.6093 42.5335C25.5941 42.6164 25.5789 42.7237 25.5618 42.8517C25.4362 42.8874 25.3297 42.9119 25.2365 42.9251C25.1452 42.9383 25.0539 42.9439 24.9626 42.9439C24.8009 42.9439 24.6545 42.9213 24.5251 42.8761C24.3958 42.831 24.2855 42.7519 24.1923 42.639C24.101 42.526 24.0344 42.3961 23.9945 42.2512C23.9545 42.1062 23.9336 41.9519 23.9336 41.79C23.9336 41.5641 23.9697 41.3533 24.0439 41.1612C24.1181 40.9674 24.2284 40.8149 24.3787 40.7057C24.527 40.5946 24.7153 40.54 24.9436 40.54C25.0615 40.54 25.1737 40.5607 25.2822 40.6003C25.3906 40.6398 25.48 40.7019 25.5503 40.7829C25.6226 40.8638 25.6778 40.9655 25.7158 41.0859C25.7558 41.2064 25.7748 41.3382 25.7748 41.4813C25.7748 41.5358 25.771 41.5886 25.7634 41.6413H24.2779C24.2722 41.7241 24.2703 41.7881 24.2703 41.8333C24.2703 41.9933 24.2988 42.1401 24.3559 42.2738C24.4129 42.4074 24.4966 42.5091 24.6088 42.5787C24.721 42.6484 24.8485 42.6822 24.9949 42.6822C25.1623 42.6822 25.3658 42.6333 25.6055 42.5373L25.6093 42.5335ZM24.2969 41.4511H25.4571C25.4571 41.3551 25.4514 41.2817 25.4419 41.2271C25.4324 41.1744 25.4153 41.1198 25.3906 41.0615C25.3658 41.005 25.3316 40.9561 25.2898 40.9128C25.2479 40.8695 25.1966 40.8393 25.1376 40.8168C25.0786 40.7942 25.014 40.7829 24.9455 40.7829C24.8713 40.7829 24.8009 40.7942 24.7344 40.8186C24.6678 40.8431 24.6088 40.877 24.5575 40.9184C24.5061 40.9617 24.4624 41.0106 24.4262 41.0671C24.3901 41.1236 24.3635 41.1782 24.3463 41.2328C24.3292 41.2855 24.3121 41.357 24.295 41.4474L24.2969 41.4511Z" fill="white"/>
<path d="M27.7245 42.5335C27.7093 42.6164 27.6941 42.7237 27.677 42.8517C27.5515 42.8874 27.4449 42.9119 27.3517 42.9251C27.2604 42.9383 27.1691 42.9439 27.0778 42.9439C26.9162 42.9439 26.7697 42.9213 26.6404 42.8761C26.511 42.831 26.4007 42.7519 26.3075 42.639C26.2162 42.526 26.1496 42.3961 26.1097 42.2512C26.0697 42.1062 26.0488 41.9519 26.0488 41.79C26.0488 41.5641 26.085 41.3533 26.1591 41.1612C26.2333 40.9674 26.3436 40.8149 26.4939 40.7057C26.6423 40.5946 26.8306 40.54 27.0588 40.54C27.1767 40.54 27.289 40.5607 27.3974 40.6003C27.5058 40.6398 27.5952 40.7019 27.6656 40.7829C27.7379 40.8638 27.793 40.9655 27.8311 41.0859C27.871 41.2064 27.89 41.3382 27.89 41.4813C27.89 41.5358 27.8862 41.5886 27.8786 41.6413H26.3931C26.3874 41.7241 26.3855 41.7881 26.3855 41.8333C26.3855 41.9933 26.414 42.1401 26.4711 42.2738C26.5281 42.4074 26.6118 42.5091 26.7241 42.5787C26.8363 42.6484 26.9637 42.6822 27.1102 42.6822C27.2776 42.6822 27.4811 42.6333 27.7207 42.5373L27.7245 42.5335ZM26.4121 41.4511H27.5724C27.5724 41.3551 27.5667 41.2817 27.5572 41.2271C27.5476 41.1744 27.5305 41.1198 27.5058 41.0615C27.4811 41.005 27.4468 40.9561 27.405 40.9128C27.3631 40.8695 27.3118 40.8393 27.2528 40.8168C27.1939 40.7942 27.1292 40.7829 27.0607 40.7829C26.9865 40.7829 26.9162 40.7942 26.8496 40.8186C26.783 40.8431 26.7241 40.877 26.6727 40.9184C26.6213 40.9617 26.5776 41.0106 26.5415 41.0671C26.5053 41.1236 26.4787 41.1782 26.4616 41.2328C26.4445 41.2855 26.4273 41.357 26.4102 41.4474L26.4121 41.4511Z" fill="white"/>
<path d="M28.2227 42.8949C28.2702 42.0196 28.293 41.3212 28.293 40.7979V40.589C28.3577 40.589 28.411 40.5908 28.4547 40.5908C28.5042 40.5908 28.5593 40.5908 28.6202 40.589L28.605 40.9673C28.6525 40.8732 28.6963 40.8017 28.7324 40.7546C28.7685 40.7076 28.8104 40.668 28.8579 40.636C28.9055 40.604 28.9569 40.5814 29.0158 40.5626C29.0748 40.5438 29.1356 40.5363 29.2003 40.5363C29.2555 40.5363 29.3087 40.5438 29.362 40.5588C29.362 40.6586 29.3677 40.7716 29.3753 40.8958C29.2954 40.8694 29.2231 40.8563 29.1585 40.8563C29.0824 40.8563 29.0139 40.8713 28.953 40.9014C28.8922 40.9316 28.837 40.9767 28.7876 41.0351C28.7381 41.0953 28.6982 41.1669 28.6677 41.2497C28.6411 41.3156 28.6221 41.4022 28.6088 41.5095C28.5955 41.6149 28.584 41.8088 28.5764 42.0893C28.5707 42.2944 28.5688 42.5109 28.5688 42.7406V42.8931C28.4985 42.8893 28.4414 42.8893 28.3995 42.8893C28.3596 42.8893 28.3006 42.8893 28.2227 42.8931V42.8949Z" fill="white"/>
<path d="M29.6309 42.895L29.6651 42.3208L29.7031 41.342L29.7184 40.589H29.8971H30.0721C30.0569 40.8262 30.0436 41.0728 30.0322 41.3326C30.0208 41.5923 30.0113 41.8747 30.0037 42.1797C29.9961 42.4865 29.9922 42.7237 29.9922 42.895C29.9105 42.8912 29.8515 42.8912 29.8173 42.8912C29.7849 42.8912 29.7222 42.8912 29.6309 42.895ZM29.7203 40.0939C29.7241 39.9509 29.726 39.8436 29.726 39.7701C29.7982 39.7739 29.861 39.7739 29.9143 39.7739C29.9827 39.7739 30.0455 39.7739 30.1007 39.7701C30.0988 39.8172 30.095 39.9245 30.0893 40.0939C30.0189 40.0939 29.958 40.092 29.9086 40.092C29.8591 40.092 29.7944 40.092 29.7203 40.0939Z" fill="white"/>
<path d="M30.5078 42.895C30.5706 41.9443 30.6029 41.1744 30.6048 40.589H30.7798C30.8236 40.5909 30.8787 40.589 30.9491 40.589L30.9244 41.0445C30.9567 40.9805 30.9833 40.9316 31.0023 40.8977C31.0214 40.8638 31.048 40.8281 31.0803 40.7904C31.1127 40.7528 31.1507 40.717 31.1945 40.685C31.2382 40.653 31.2915 40.6247 31.3504 40.604C31.4094 40.5815 31.4703 40.5664 31.533 40.5551C31.5939 40.5438 31.6567 40.54 31.7175 40.54C31.8297 40.54 31.9363 40.5551 32.0409 40.5871C32.1455 40.6191 32.2292 40.6718 32.2976 40.7433C32.3642 40.8149 32.4099 40.8958 32.4327 40.9862C32.4555 41.0765 32.4669 41.1725 32.4669 41.2761C32.4669 41.2949 32.4669 41.3344 32.465 41.389C32.465 41.4455 32.4612 41.5189 32.4574 41.6093L32.4194 42.5637C32.4175 42.654 32.4156 42.767 32.4137 42.8987C32.3547 42.895 32.2996 42.895 32.2482 42.895C32.1854 42.895 32.1246 42.895 32.0694 42.8987C32.0827 42.7142 32.0922 42.5392 32.0979 42.3679L32.1227 41.837C32.1303 41.6544 32.1341 41.517 32.1341 41.4248C32.1341 41.2911 32.1151 41.1838 32.0751 41.1048C32.0352 41.0257 31.9743 40.9636 31.8887 40.9203C31.8031 40.877 31.7061 40.8563 31.5996 40.8563C31.4493 40.8563 31.32 40.8977 31.2116 40.9824C31.1127 41.0596 31.0366 41.1707 30.9814 41.3118C30.9434 41.4135 30.9168 41.5641 30.9015 41.7617C30.8825 42.0008 30.8673 42.3792 30.8597 42.8968C30.7874 42.8931 30.7304 42.8931 30.6904 42.8931C30.6505 42.8931 30.5896 42.8931 30.5078 42.8968V42.895Z" fill="white"/>
<path d="M33.0478 43.5633C33.219 43.6235 33.3636 43.6649 33.4777 43.6856C33.5937 43.7063 33.6983 43.7176 33.7934 43.7176C33.9019 43.7176 34.0008 43.7007 34.094 43.6649C34.17 43.6367 34.2366 43.5953 34.2899 43.5426C34.3317 43.5012 34.366 43.4485 34.3926 43.3826C34.4268 43.296 34.4497 43.1868 34.4649 43.0531C34.4763 42.9458 34.4858 42.7312 34.4915 42.4093C34.4611 42.4771 34.4325 42.5336 34.4059 42.575C34.3812 42.6183 34.3469 42.6616 34.3032 42.7068C34.2613 42.7519 34.21 42.7915 34.1529 42.8254C34.0959 42.8611 34.0293 42.8875 33.9551 42.9082C33.879 42.9289 33.801 42.9383 33.7212 42.9383C33.6032 42.9383 33.4929 42.9195 33.3883 42.8818C33.2856 42.8442 33.1924 42.7802 33.1125 42.6936C33.0307 42.6051 32.9698 42.4941 32.928 42.3566C32.8862 42.2192 32.8652 42.078 32.8652 41.9293C32.8652 41.7241 32.8976 41.5303 32.9603 41.3439C33.0231 41.1594 33.1163 41.0032 33.2361 40.8789C33.3579 40.7547 33.4948 40.6662 33.647 40.6154C33.7991 40.5646 33.9665 40.5382 34.1491 40.5382C34.3488 40.5382 34.598 40.5702 34.8947 40.6323L34.8738 40.9128L34.8148 42.1891C34.8148 42.2155 34.811 42.3698 34.8053 42.6541L34.7939 43.1247C34.7882 43.2244 34.7749 43.3129 34.7597 43.3882C34.7445 43.4503 34.7235 43.5106 34.6969 43.5652C34.6741 43.616 34.6437 43.663 34.6094 43.7063C34.5752 43.7496 34.5352 43.7892 34.4915 43.8249C34.4458 43.8588 34.3964 43.8871 34.345 43.9096C34.2728 43.9398 34.1967 43.9624 34.1187 43.9755C34.0312 43.9925 33.9418 44 33.8543 44C33.7269 44 33.6013 43.9925 33.4796 43.9774C33.356 43.9624 33.219 43.9341 33.0669 43.8908L33.0611 43.7647C33.0611 43.7346 33.0554 43.6668 33.0478 43.5614V43.5633ZM34.5448 40.877C34.4002 40.8432 34.2632 40.8262 34.1377 40.8262C34.0122 40.8262 33.8923 40.8432 33.7839 40.8789C33.6755 40.9147 33.5766 40.9768 33.4853 41.0709C33.3959 41.1632 33.3255 41.2836 33.2742 41.4305C33.2228 41.5773 33.1981 41.7298 33.1981 41.8879C33.1981 42.0347 33.2209 42.1703 33.2666 42.2908C33.3122 42.4112 33.3845 42.5035 33.4796 42.5656C33.5747 42.6277 33.685 42.6578 33.8068 42.6578C33.9114 42.6578 34.0046 42.6352 34.0883 42.5938C34.17 42.5505 34.2442 42.4846 34.307 42.3943C34.3736 42.302 34.423 42.1947 34.4554 42.0762C34.4801 41.9914 34.4991 41.8653 34.5124 41.6978C34.5219 41.5641 34.5333 41.2912 34.5428 40.8789L34.5448 40.877Z" fill="white"/>
<path d="M36.2611 42.8141C36.2553 42.6691 36.2477 42.5449 36.2363 42.4376C36.3733 42.5129 36.4969 42.5675 36.6072 42.5976C36.7175 42.6277 36.8222 42.6447 36.923 42.6447C37.0238 42.6447 37.1113 42.6258 37.195 42.5863C37.2787 42.5468 37.3414 42.4922 37.3833 42.4225C37.4251 42.3529 37.446 42.2719 37.446 42.1797C37.446 42.127 37.4384 42.0762 37.4251 42.031C37.4099 41.9839 37.3871 41.9369 37.3566 41.8898C37.3262 41.8427 37.2691 41.7769 37.1912 41.6959C37.1132 41.615 37.001 41.502 36.8564 41.3608L36.7118 41.2178C36.6567 41.1632 36.6072 41.1086 36.5635 41.0559C36.5197 41.0013 36.4817 40.9505 36.4532 40.9015C36.4227 40.8526 36.3999 40.8074 36.3847 40.7679C36.3676 40.7283 36.3562 40.6832 36.3466 40.6342C36.3371 40.5853 36.3333 40.5344 36.3333 40.4836C36.3333 40.3537 36.3638 40.2314 36.4246 40.1165C36.4855 40.0036 36.5768 39.9114 36.7004 39.8436C36.8241 39.7758 36.9857 39.7419 37.1855 39.7419C37.33 39.7419 37.5069 39.7645 37.7161 39.8097C37.718 39.9076 37.7275 40.0281 37.7428 40.1693C37.5449 40.0864 37.3642 40.0469 37.2007 40.0469C37.0884 40.0469 36.9952 40.0676 36.9211 40.1109C36.845 40.1542 36.7879 40.2088 36.7499 40.2766C36.7099 40.3443 36.6909 40.4121 36.6909 40.4836C36.6909 40.5269 36.6966 40.5683 36.7061 40.6079C36.7156 40.6474 36.7328 40.6869 36.7537 40.7227C36.7841 40.7754 36.8203 40.83 36.864 40.8827C36.9078 40.9373 36.9686 41.0013 37.0466 41.0804C37.0656 41.0992 37.1398 41.1707 37.2691 41.295C37.3985 41.4192 37.4917 41.5152 37.5526 41.5848C37.6115 41.6526 37.6591 41.7166 37.6933 41.775C37.7275 41.8333 37.7561 41.8973 37.7751 41.9632C37.7941 42.0291 37.8036 42.1044 37.8036 42.1835C37.8036 42.3039 37.7808 42.4169 37.7371 42.5185C37.6914 42.6202 37.6286 42.7049 37.5449 42.7708C37.4613 42.8367 37.3681 42.8818 37.2653 42.9101C37.1626 42.9364 37.0561 42.9515 36.9439 42.9515C36.8545 42.9515 36.7613 42.944 36.6662 42.927C36.5711 42.912 36.4341 42.8743 36.2592 42.8197L36.2611 42.8141Z" fill="white"/>
<path d="M39.2045 40.5382C39.3414 40.5382 39.4708 40.5608 39.5944 40.606C39.718 40.6512 39.8246 40.7227 39.914 40.8225C40.0034 40.9203 40.0718 41.0465 40.1194 41.1952C40.1669 41.3458 40.1898 41.5039 40.1898 41.6714C40.1898 41.8521 40.165 42.0253 40.1156 42.191C40.0661 42.3566 39.9957 42.4959 39.9044 42.6126C39.815 42.7275 39.7047 42.8122 39.5735 42.8668C39.4422 42.9214 39.3034 42.9477 39.1531 42.9477C39.0143 42.9477 38.883 42.9232 38.7594 42.8743C38.6358 42.8254 38.5293 42.7501 38.4399 42.6465C38.3505 42.543 38.282 42.4169 38.2344 42.2682C38.1869 42.1194 38.1641 41.9613 38.1641 41.7976C38.1641 41.551 38.2078 41.3269 38.2934 41.1293C38.379 40.9316 38.5045 40.7829 38.6719 40.685C38.8374 40.5872 39.0162 40.5382 39.2045 40.5382ZM39.195 40.8281C39.0618 40.8281 38.942 40.8676 38.8298 40.9448C38.7176 41.022 38.6377 41.1387 38.5844 41.2949C38.5312 41.4512 38.5045 41.6206 38.5045 41.8032C38.5045 41.9651 38.5274 42.1082 38.5711 42.2362C38.6149 42.3642 38.6871 42.4677 38.7879 42.5468C38.8887 42.6258 39.0105 42.6654 39.1531 42.6654C39.2501 42.6654 39.3433 42.6465 39.4289 42.607C39.5164 42.5675 39.5925 42.5035 39.6572 42.415C39.7218 42.3246 39.7694 42.2155 39.8017 42.0856C39.8322 41.9557 39.8493 41.8201 39.8493 41.6771C39.8493 41.5434 39.8341 41.4173 39.8017 41.3006C39.7713 41.1839 39.7238 41.0898 39.6591 41.0201C39.5944 40.9505 39.5221 40.8996 39.4403 40.8714C39.3586 40.8432 39.2768 40.8281 39.195 40.8281Z" fill="white"/>
<path d="M40.5723 42.895C40.5989 42.4282 40.6236 41.8747 40.6483 41.2328C40.6655 40.7679 40.6769 40.286 40.6845 39.7871H40.8652C40.9032 39.789 40.9603 39.7871 41.0383 39.7871L40.9774 41.1236L40.9356 42.4752L40.928 42.8931C40.8519 42.8894 40.7948 42.8894 40.7568 42.8894C40.7415 42.8894 40.6788 42.8894 40.5723 42.8931V42.895Z" fill="white"/>
<path d="M43.318 42.895C43.2552 42.8913 43.2 42.8913 43.1544 42.8913C43.103 42.8913 43.0479 42.8913 42.9927 42.895L43.0022 42.4564C42.9718 42.5242 42.9433 42.5769 42.9223 42.6145C42.8995 42.6522 42.871 42.688 42.8367 42.7237C42.8025 42.7595 42.7683 42.7896 42.7321 42.8141C42.696 42.8385 42.6541 42.8593 42.6066 42.8781C42.559 42.8969 42.502 42.9138 42.4373 42.9251C42.3726 42.9364 42.3042 42.944 42.2319 42.944C42.074 42.944 41.939 42.9157 41.8267 42.8593C41.7145 42.8028 41.6289 42.7237 41.5719 42.6202C41.5148 42.5167 41.4844 42.3755 41.4844 42.1966C41.4844 42.1703 41.4844 42.1232 41.4882 42.0573C41.492 41.9915 41.4939 41.9067 41.4996 41.8032L41.5319 41.0446L41.5376 40.8018C41.5376 40.7453 41.5376 40.6738 41.5376 40.5872H41.7164C41.7526 40.589 41.8096 40.5872 41.8838 40.5872C41.8648 40.8526 41.8477 41.1425 41.8305 41.4587C41.8134 41.775 41.8058 41.9764 41.8058 42.0649C41.8058 42.1985 41.8248 42.3058 41.861 42.3849C41.8971 42.4639 41.9599 42.5261 42.0455 42.5694C42.1311 42.6127 42.23 42.6334 42.3384 42.6334C42.4335 42.6334 42.5267 42.6127 42.6142 42.575C42.6903 42.5392 42.753 42.4922 42.8044 42.4338C42.8596 42.3679 42.9071 42.2851 42.9452 42.1816C42.9718 42.1063 42.9927 42.0084 43.0079 41.8879C43.0174 41.8013 43.0269 41.6451 43.0346 41.4211C43.0441 41.1481 43.0517 40.8695 43.0555 40.589H43.2362C43.2742 40.5909 43.3294 40.589 43.3997 40.589C43.3826 40.862 43.3598 41.278 43.3351 41.8333C43.3199 42.1402 43.3123 42.4941 43.3084 42.8931L43.318 42.895Z" fill="white"/>
<path d="M44.8357 42.5957C44.8205 42.6691 44.8053 42.7689 44.7882 42.8913C44.7007 42.9157 44.6303 42.9308 44.577 42.9364C44.5257 42.9421 44.4762 42.9458 44.4287 42.9458C44.3127 42.9458 44.2195 42.9289 44.1491 42.895C44.0787 42.8611 44.0235 42.8065 43.9855 42.7312C43.9475 42.6559 43.9284 42.5543 43.9284 42.4244C43.9284 42.4075 43.9284 42.3773 43.9303 42.3359C43.9322 42.2945 43.9379 42.1458 43.9494 41.8917L43.9969 40.8714H43.7363C43.742 40.8074 43.7458 40.717 43.7496 40.5984H44.0159C44.0216 40.5137 44.0292 40.3688 44.035 40.1636C44.1567 40.1373 44.2594 40.1109 44.3431 40.0864C44.3336 40.3104 44.3298 40.4817 44.3279 40.5984H44.8681C44.8623 40.6945 44.8585 40.7848 44.8566 40.8714H44.3184L44.267 42.1533V42.2512C44.267 42.3623 44.2765 42.4451 44.2974 42.4997C44.3184 42.5543 44.3507 42.5957 44.3944 42.6183C44.4363 42.6428 44.4819 42.6541 44.5295 42.6541C44.5618 42.6541 44.5961 42.6503 44.6341 42.6447C44.6721 42.639 44.7368 42.6221 44.8319 42.5919L44.8357 42.5957Z" fill="white"/>
<path d="M45.1309 42.895L45.1651 42.3208L45.2031 41.342L45.2184 40.589H45.3971H45.5721C45.5569 40.8262 45.5436 41.0728 45.5322 41.3326C45.5208 41.5923 45.5113 41.8747 45.5037 42.1797C45.4961 42.4865 45.4923 42.7237 45.4923 42.895C45.4105 42.8912 45.3515 42.8912 45.3173 42.8912C45.2849 42.8912 45.2222 42.8912 45.1309 42.895ZM45.2203 40.0939C45.2241 39.9509 45.226 39.8436 45.226 39.7701C45.2982 39.7739 45.361 39.7739 45.4143 39.7739C45.4827 39.7739 45.5455 39.7739 45.6007 39.7701C45.5988 39.8172 45.595 39.9245 45.5893 40.0939C45.5189 40.0939 45.458 40.092 45.4086 40.092C45.3591 40.092 45.2944 40.092 45.2203 40.0939Z" fill="white"/>
<path d="M47.0014 40.5382C47.1383 40.5382 47.2677 40.5608 47.3913 40.606C47.5149 40.6512 47.6214 40.7227 47.7108 40.8225C47.8002 40.9203 47.8687 41.0465 47.9163 41.1952C47.9638 41.3458 47.9866 41.5039 47.9866 41.6714C47.9866 41.8521 47.9619 42.0253 47.9125 42.191C47.863 42.3566 47.7926 42.4959 47.7013 42.6126C47.6119 42.7275 47.5016 42.8122 47.3704 42.8668C47.2391 42.9214 47.1003 42.9477 46.95 42.9477C46.8112 42.9477 46.6799 42.9232 46.5563 42.8743C46.4326 42.8254 46.3261 42.7501 46.2367 42.6465C46.1473 42.543 46.0789 42.4169 46.0313 42.2682C45.9838 42.1194 45.9609 41.9613 45.9609 41.7976C45.9609 41.551 46.0047 41.3269 46.0903 41.1293C46.1759 40.9316 46.3014 40.7829 46.4688 40.685C46.6343 40.5872 46.8131 40.5382 47.0014 40.5382ZM46.9919 40.8281C46.8587 40.8281 46.7389 40.8676 46.6267 40.9448C46.5144 41.022 46.4346 41.1387 46.3813 41.2949C46.328 41.4512 46.3014 41.6206 46.3014 41.8032C46.3014 41.9651 46.3242 42.1082 46.368 42.2362C46.4117 42.3642 46.484 42.4677 46.5848 42.5468C46.6856 42.6258 46.8074 42.6654 46.95 42.6654C47.047 42.6654 47.1402 42.6465 47.2258 42.607C47.3133 42.5675 47.3894 42.5035 47.4541 42.415C47.5187 42.3246 47.5663 42.2155 47.5986 42.0856C47.629 41.9557 47.6462 41.8201 47.6462 41.6771C47.6462 41.5434 47.6309 41.4173 47.5986 41.3006C47.5682 41.1839 47.5206 41.0898 47.456 41.0201C47.3913 40.9505 47.319 40.8996 47.2372 40.8714C47.1554 40.8432 47.0736 40.8281 46.9919 40.8281Z" fill="white"/>
<path d="M48.3574 42.895C48.4202 41.9443 48.4525 41.1744 48.4544 40.589H48.6294C48.6732 40.5909 48.7283 40.589 48.7987 40.589L48.774 41.0445C48.8063 40.9805 48.8329 40.9316 48.852 40.8977C48.871 40.8638 48.8976 40.8281 48.9299 40.7904C48.9623 40.7528 49.0003 40.717 49.0441 40.685C49.0878 40.653 49.1411 40.6247 49.2 40.604C49.259 40.5815 49.3199 40.5664 49.3826 40.5551C49.4435 40.5438 49.5063 40.54 49.5671 40.54C49.6794 40.54 49.7859 40.5551 49.8905 40.5871C49.9951 40.6191 50.0788 40.6718 50.1473 40.7433C50.2138 40.8149 50.2595 40.8958 50.2823 40.9862C50.3051 41.0765 50.3165 41.1725 50.3165 41.2761C50.3165 41.2949 50.3165 41.3344 50.3146 41.389C50.3146 41.4455 50.3108 41.5189 50.307 41.6093L50.269 42.5637C50.2671 42.654 50.2652 42.767 50.2633 42.8987C50.2043 42.895 50.1492 42.895 50.0978 42.895C50.035 42.895 49.9742 42.895 49.919 42.8987C49.9323 42.7142 49.9418 42.5392 49.9475 42.3679L49.9723 41.837C49.9799 41.6544 49.9837 41.517 49.9837 41.4248C49.9837 41.2911 49.9647 41.1838 49.9247 41.1048C49.8848 41.0257 49.8239 40.9636 49.7383 40.9203C49.6527 40.877 49.5557 40.8563 49.4492 40.8563C49.2989 40.8563 49.1696 40.8977 49.0612 40.9824C48.9623 41.0596 48.8862 41.1707 48.831 41.3118C48.793 41.4135 48.7664 41.5641 48.7511 41.7617C48.7321 42.0008 48.7169 42.3792 48.7093 42.8968C48.637 42.8931 48.58 42.8931 48.54 42.8931C48.5001 42.8931 48.4392 42.8931 48.3574 42.8968V42.895Z" fill="white"/>
<path d="M50.6809 42.8536L50.6695 42.686C50.6695 42.6672 50.6638 42.6089 50.6543 42.5129C50.854 42.6145 51.0385 42.6653 51.2078 42.6653C51.2953 42.6653 51.3714 42.6522 51.4322 42.6239C51.4931 42.5976 51.5388 42.5562 51.5692 42.5034C51.5996 42.4507 51.6148 42.3943 51.6148 42.3359C51.6148 42.3039 51.611 42.2719 51.6015 42.2399C51.5939 42.2079 51.5806 42.1778 51.5635 42.1477C51.5464 42.1175 51.5216 42.0855 51.4893 42.0498C51.457 42.014 51.3866 41.9481 51.2839 41.8484C51.1793 41.7505 51.0994 41.6733 51.0461 41.6168C50.9929 41.5604 50.9453 41.5039 50.9073 41.4455C50.8692 41.3872 50.8407 41.3288 50.8217 41.2686C50.8027 41.2083 50.795 41.15 50.795 41.0879C50.795 40.99 50.8217 40.8959 50.8749 40.8055C50.9282 40.7151 51.0024 40.6474 51.1032 40.6022C51.2021 40.557 51.3181 40.5344 51.4532 40.5344C51.6034 40.5344 51.767 40.5551 51.9458 40.5965C51.9515 40.7151 51.9572 40.8243 51.9648 40.9222C51.8203 40.8526 51.6757 40.8168 51.535 40.8168C51.4589 40.8168 51.3866 40.8281 51.3219 40.8526C51.2573 40.877 51.2078 40.9109 51.1774 40.958C51.1469 41.005 51.1317 41.0559 51.1317 41.1123C51.1317 41.1481 51.1374 41.1839 51.1469 41.2177C51.1564 41.2516 51.1755 41.2874 51.2021 41.325C51.2287 41.3646 51.2611 41.4022 51.2991 41.4399C51.3371 41.4775 51.4113 41.5491 51.5235 41.6545C51.6358 41.7599 51.7118 41.8371 51.7537 41.886C51.7955 41.9368 51.8317 41.9877 51.8602 42.0404C51.8906 42.0931 51.9116 42.1458 51.9249 42.1985C51.9382 42.2512 51.9458 42.3039 51.9458 42.3585C51.9458 42.4639 51.9192 42.5637 51.8659 42.654C51.8126 42.7444 51.7309 42.8159 51.6262 42.8649C51.5197 42.9157 51.3999 42.9402 51.2687 42.9402C51.2135 42.9402 51.1469 42.9364 51.0728 42.927C50.9967 42.9195 50.9339 42.9082 50.8806 42.8969C50.8274 42.8856 50.7627 42.8686 50.6847 42.8461L50.6809 42.8536Z" fill="white"/>
<path d="M32.7835 21.6292C32.7835 26.0435 31.7621 29.8178 29.7212 32.9483C27.6802 36.0788 25.2209 37.645 22.3431 37.645C19.4652 37.645 16.9945 36.1108 14.9345 33.0424C12.8727 29.974 11.8418 26.2167 11.8418 21.7704C11.8418 17.3241 12.8727 13.3013 14.9345 10.169C16.9964 7.03848 19.5261 5.47229 22.5276 5.47229C25.529 5.47229 27.8096 7.06106 29.7991 10.2386C31.7887 13.4162 32.7835 17.213 32.7835 21.6273V21.6292ZM13.3121 21.5822C13.3121 25.3715 14.1889 28.6112 15.9445 31.3049C17.7001 33.9987 19.8228 35.3446 22.3126 35.3446C24.8024 35.3446 26.9004 34.0232 28.6655 31.3765C30.4306 28.7316 31.3132 25.5296 31.3132 21.7723C31.3132 17.7646 30.4249 14.4308 28.6503 11.769C26.8738 9.10727 24.6902 7.77639 22.0977 7.77639C19.6897 7.77639 17.6222 9.1468 15.8989 11.8857C14.1737 14.6266 13.3121 17.8587 13.3121 21.584V21.5822Z" fill="white"/>
</g>
<defs>
<clipPath id="clip0_27_2426">
<rect width="126" height="44" fill="white" transform="translate(0.5)"/>
</clipPath>
</defs>
</svg>
